<?xml version="1.0" standalone="no"?>
<!DOCTYPE svg PUBLIC "-//W3C//DTD SVG 20010904//EN"
 "http://www.w3.org/TR/2001/REC-SVG-20010904/DTD/svg10.dtd">
<svg version="1.0" xmlns="http://www.w3.org/2000/svg"
 width="360.000000pt" height="360.000000pt" viewBox="0 0 360.000000 360.000000"
 preserveAspectRatio="xMidYMid meet">
<metadata>
Created by potrace 1.14, written by Peter Selinger 2001-2017
</metadata>
<g transform="translate(0.000000,360.000000) scale(0.100000,-0.100000)"
fill="#000000" stroke="none">
<path d="M643 3527 c-3 -174 -29 -378 -55 -443 l-24 -59 71 47 c58 39 147 80
236 111 9 3 19 21 22 44 15 93 28 289 22 329 l-6 44 -132 0 -132 0 -2 -73z"/>
<path d="M989 3573 c-13 -34 -15 -48 -28 -185 -6 -58 -13 -126 -17 -150 -4
-29 -3 -40 4 -33 5 6 27 86 47 179 20 93 41 180 46 193 7 20 6 23 -16 23 -18
0 -29 -8 -36 -27z"/>
<path d="M1198 3537 c-20 -34 -46 -87 -58 -117 -12 -30 -28 -66 -35 -80 -8
-14 -23 -46 -34 -72 l-20 -48 22 0 c31 0 40 9 56 55 28 82 74 163 137 243 l64
82 -47 0 -48 0 -37 -63z"/>
<path d="M2768 3593 c6 -2 12 -11 12 -19 0 -8 7 -14 17 -14 9 0 31 -11 50 -26
43 -32 44 -71 5 -115 -31 -35 -89 -47 -127 -26 -11 6 -51 11 -90 12 -42 1 -82
8 -101 18 -45 23 -73 27 -229 32 -77 2 -168 7 -202 10 -61 5 -127 -5 -253 -40
-75 -21 -180 -96 -180 -129 0 -7 -22 -36 -50 -66 -33 -36 -46 -56 -38 -61 17
-11 45 11 131 106 47 51 89 88 105 91 15 4 43 15 63 25 54 27 210 34 336 15
57 -9 124 -16 150 -16 25 0 92 -12 147 -26 56 -14 117 -29 136 -34 73 -19 143
-22 213 -12 40 7 106 13 148 16 89 4 146 27 155 62 17 65 -29 135 -95 148 -19
3 -58 17 -87 31 -44 21 -67 25 -141 24 -48 0 -82 -3 -75 -6z"/>
<path d="M3285 3584 c159 -119 221 -156 283 -167 31 -6 32 -6 32 29 0 27 -4
35 -14 31 -7 -3 -18 -1 -24 5 -8 8 -15 8 -26 -1 -21 -18 -59 -4 -131 48 -56
41 -62 48 -47 58 14 10 7 12 -38 12 -51 0 -54 -1 -35 -15z"/>
<path d="M3368 3573 c6 -2 18 -2 25 0 6 3 1 5 -13 5 -14 0 -19 -2 -12 -5z"/>
<path d="M270 3370 c0 -5 5 -10 11 -10 5 0 7 5 4 10 -3 6 -8 10 -11 10 -2 0
-4 -4 -4 -10z"/>
<path d="M3380 3324 c-52 -25 -98 -51 -102 -58 -8 -13 -136 -33 -188 -29 -14
1 -101 -10 -195 -26 -193 -31 -210 -30 -370 24 -66 23 -134 38 -200 45 -55 5
-132 17 -171 26 -77 17 -109 12 -249 -36 -60 -21 -235 -119 -235 -132 0 -4 15
-15 33 -24 17 -9 56 -35 86 -58 30 -22 56 -36 58 -31 33 94 184 179 303 171
115 -8 176 -20 202 -37 14 -11 39 -19 55 -20 15 0 37 -4 48 -9 39 -16 -30 -30
-178 -36 -78 -3 -157 -10 -175 -16 -36 -11 -189 -95 -198 -109 -3 -5 10 -28
29 -52 19 -23 40 -53 47 -66 l13 -25 56 62 c50 54 66 65 141 93 58 21 109 33
160 35 94 6 262 32 315 49 22 7 92 18 155 25 63 6 157 21 207 32 75 17 90 23
77 32 -13 10 5 19 98 49 63 21 125 46 139 55 14 9 54 36 89 60 75 50 78 52 59
51 -8 0 -57 -21 -109 -45z m-350 -137 c0 -19 -39 -35 -102 -43 -50 -6 -52 -5
-36 11 9 10 40 23 70 30 69 17 68 17 68 2z m-196 -45 c5 -9 -61 -27 -136 -37
-28 -4 -48 -2 -48 3 0 10 26 18 100 31 64 12 78 12 84 3z m-625 -85 c17 -21
-11 -41 -102 -72 -43 -15 -88 -38 -100 -51 -12 -13 -28 -24 -34 -24 -21 0 -15
28 9 41 13 7 29 18 36 26 7 7 19 13 26 13 7 0 21 9 31 20 10 11 26 20 37 20
10 0 18 4 18 8 0 10 38 30 56 31 6 1 17 -5 23 -12z"/>
<path d="M3574 3329 c-19 -22 -19 -22 4 -10 12 6 22 16 22 21 0 15 -5 12 -26
-11z"/>
<path d="M3455 3251 c-3 -5 -28 -17 -56 -26 -58 -20 -60 -31 -2 -16 33 9 91
51 70 51 -3 0 -8 -4 -12 -9z"/>
<path d="M3290 3180 c-18 -12 -2 -12 25 0 13 6 15 9 5 9 -8 0 -22 -4 -30 -9z"/>
<path d="M3098 3117 c-32 -11 -56 -22 -53 -25 6 -6 115 29 121 39 7 12 -1 10
-68 -14z"/>
<path d="M3000 3080 c-8 -5 -10 -10 -5 -10 6 0 17 5 25 10 8 5 11 10 5 10 -5
0 -17 -5 -25 -10z"/>
<path d="M20 3069 c0 -5 5 -7 10 -4 6 3 10 8 10 11 0 2 -4 4 -10 4 -5 0 -10
-5 -10 -11z"/>
<path d="M1001 3067 c-17 -9 -30 -31 -46 -83 -17 -54 -37 -89 -85 -148 -34
-42 -64 -76 -65 -74 -2 2 12 61 31 133 18 71 31 131 28 134 -13 13 -163 -77
-215 -129 -74 -74 -101 -133 -107 -230 -5 -88 7 -134 50 -197 28 -42 29 -42
48 -23 11 11 20 24 20 29 0 4 18 29 40 54 22 25 40 48 40 52 0 4 32 37 71 73
116 108 182 210 213 330 9 34 19 68 22 77 7 18 -12 19 -45 2z m-210 -340 c-10
-9 -11 -8 -5 6 3 10 9 15 12 12 3 -3 0 -11 -7 -18z"/>
<path d="M2895 3054 c-85 -26 -169 -58 -159 -61 5 -1 63 15 129 37 114 37 137
56 30 24z"/>
<path d="M1220 3044 c0 -8 -13 -22 -29 -32 -32 -18 -61 -60 -61 -87 0 -41
-145 -290 -212 -363 -21 -23 -51 -61 -66 -85 -15 -23 -40 -56 -55 -72 -53 -56
-53 -62 0 -89 70 -35 172 -64 301 -87 114 -19 216 -25 197 -11 -5 4 -12 36
-15 72 -6 92 -5 509 2 607 6 71 4 84 -10 93 -9 5 -12 10 -6 10 6 0 9 12 6 28
-3 21 -10 28 -28 30 -16 1 -24 -3 -24 -14z"/>
<path d="M17 3036 c-4 -10 0 -12 14 -9 22 6 26 23 5 23 -8 0 -16 -6 -19 -14z"/>
<path d="M1472 3017 c-7 -18 -12 -44 -12 -58 0 -13 -7 -55 -16 -94 -21 -97
-20 -150 6 -275 6 -30 10 -82 9 -115 -1 -33 3 -73 10 -89 15 -36 25 -29 11 8
-12 33 -13 86 -2 86 7 0 14 -49 16 -122 1 -14 4 -24 7 -22 4 2 9 -5 12 -16 3
-11 1 -18 -3 -15 -13 8 -10 -75 3 -103 6 -14 25 -26 50 -33 51 -14 56 -7 15
21 -43 30 -58 49 -58 74 1 18 3 16 17 -9 17 -31 51 -64 67 -65 6 0 27 -12 48
-26 21 -15 40 -25 43 -23 2 3 11 43 19 89 11 65 20 89 38 105 31 26 64 84 73
126 4 19 11 39 14 44 21 29 61 140 61 168 0 30 -48 128 -68 141 -11 6 -44 -92
-36 -105 3 -5 -4 -39 -16 -74 -22 -66 -56 -105 -91 -105 -9 0 -26 -10 -36 -23
-10 -13 -23 -26 -30 -30 -18 -11 3 53 27 83 27 33 70 125 106 227 l28 82 -24
27 c-33 35 -168 124 -189 124 -12 0 -20 -16 -30 -57 -7 -32 -25 -81 -41 -108
-15 -28 -31 -69 -35 -93 -4 -23 -11 -42 -16 -42 -15 0 -10 64 10 122 15 44 41
172 41 202 0 19 -18 1 -28 -27z m-5 -424 c-3 -10 -5 -4 -5 12 0 17 2 24 5 18
2 -7 2 -21 0 -30z"/>
<path d="M2660 2966 c-215 -109 -210 -105 -307 -207 -97 -100 -166 -187 -198
-250 -10 -19 -20 -29 -22 -22 -4 12 38 101 69 146 11 16 18 31 15 34 -6 6 -45
-54 -72 -109 -21 -46 -31 -48 -40 -8 -6 29 12 90 27 90 3 0 13 6 20 14 95 101
128 131 160 147 44 22 52 24 42 7 -4 -7 2 -4 15 6 12 11 20 24 18 30 -3 6 2
19 11 29 14 16 4 25 -12 10 -3 -4 -16 -8 -26 -10 -26 -4 -129 -57 -155 -80
-12 -10 -24 -26 -28 -35 -3 -10 -11 -18 -17 -18 -6 0 -28 -28 -50 -62 -22 -35
-40 -57 -40 -50 0 10 -18 12 -72 10 l-71 -3 -44 -105 c-24 -58 -71 -172 -105
-255 -171 -418 -210 -511 -219 -520 -7 -7 -7 -2 -1 13 4 13 5 47 2 75 -8 58
-1 92 30 141 l20 34 -37 7 c-21 3 -48 9 -60 12 -19 4 -23 1 -23 -19 0 -13 -5
-29 -12 -36 -7 -7 -9 -12 -5 -12 4 0 1 -13 -7 -29 -9 -16 -12 -31 -9 -35 3 -3
-3 -25 -15 -48 -11 -24 -26 -60 -32 -80 -13 -42 -16 -221 -4 -240 11 -17 14
-35 15 -83 1 -42 -78 -245 -261 -670 -28 -66 -68 -159 -88 -207 -19 -48 -37
-86 -39 -85 -1 2 11 41 26 88 16 46 33 102 37 124 4 22 15 52 26 68 11 15 16
27 12 27 -3 0 -2 6 4 13 6 7 15 32 20 55 10 41 10 42 -22 47 -211 33 -292 57
-407 116 -237 123 -381 331 -475 689 -12 47 -23 77 -23 68 -1 -17 -41 -50
-101 -82 -19 -10 -44 -26 -55 -35 -11 -9 -32 -23 -47 -31 l-28 -13 0 -814 0
-813 398 0 c218 0 402 4 408 8 5 4 18 23 27 43 9 20 23 42 32 49 8 7 15 19 15
27 0 8 7 27 15 41 28 52 65 143 74 182 5 21 18 52 29 67 18 24 30 29 98 38
l77 10 114 275 c62 151 127 304 144 340 28 58 32 63 40 42 5 -12 6 -29 2 -38
-4 -12 0 -14 23 -9 68 15 123 37 121 48 -1 9 112 13 459 15 l462 2 76 -187
c42 -104 105 -257 139 -340 l62 -153 71 0 71 0 -139 342 c-76 189 -143 352
-148 363 -6 11 -125 301 -265 645 -182 444 -255 632 -251 651 9 47 79 150 155
229 42 43 93 99 114 124 21 25 43 46 50 46 13 0 93 40 192 96 68 38 64 45 -5
10z m-683 -598 c-14 -35 -35 -120 -48 -190 -22 -124 -22 -128 -4 -148 26 -28
32 -25 27 14 -5 40 43 277 63 315 l13 26 11 -28 c6 -16 11 -34 11 -42 0 -7 5
-15 10 -17 15 -5 15 -34 0 -108 -11 -57 -11 -82 4 -183 16 -111 43 -223 51
-215 2 2 -2 25 -10 50 -24 81 -39 276 -26 327 7 24 16 40 21 35 8 -9 380 -917
380 -928 0 -3 -137 -6 -304 -6 l-304 0 -6 23 c-10 39 -6 96 10 136 16 40 42
57 77 52 24 -3 37 37 37 115 0 75 -5 78 -87 40 -65 -31 -127 -106 -142 -173
-5 -27 -8 -81 -6 -121 l4 -72 -63 0 c-97 0 -122 8 -141 44 -17 31 -16 33 20
126 34 86 44 102 110 165 92 89 130 158 130 237 -1 32 -6 63 -13 70 -7 7 -12
20 -12 29 0 10 37 104 81 211 45 106 91 217 102 247 12 30 23 49 25 43 2 -6
-8 -40 -21 -74z m-242 -636 c-19 -34 -40 -64 -45 -67 -17 -10 -11 21 9 46 30
40 43 70 46 110 5 60 20 71 23 18 2 -38 -3 -57 -33 -107z"/>
<path d="M2042 1940 c0 -14 2 -19 5 -12 2 6 2 18 0 25 -3 6 -5 1 -5 -13z"/>
<path d="M1957 1746 c3 -15 10 -29 15 -32 6 -4 7 2 3 17 -10 35 -23 45 -18 15z"/>
<path d="M2140 1579 l0 -76 57 -6 c32 -3 59 -4 61 -2 2 2 -6 14 -20 27 -13 13
-29 35 -36 49 -8 14 -24 39 -37 55 l-24 29 -1 -76z"/>
<path d="M2284 1469 c10 -6 32 -25 48 -43 l30 -31 -27 37 c-14 20 -33 39 -41
42 -25 10 -31 6 -10 -5z"/>
<path d="M381 2692 c0 -7 -14 -31 -31 -54 -16 -22 -30 -47 -30 -54 0 -7 -13
-28 -28 -46 -30 -36 -79 -106 -100 -144 -7 -13 -17 -24 -23 -24 -5 0 -9 -4 -9
-9 0 -5 -36 -45 -80 -90 l-80 -81 0 -136 c0 -105 3 -134 13 -128 6 5 39 31 72
59 33 28 76 61 95 75 59 41 11 -8 -90 -91 -125 -102 -118 -140 9 -46 76 56 90
68 120 101 14 16 43 45 65 65 51 47 185 180 214 213 l24 26 -40 51 c-52 65
-82 146 -91 246 -5 44 -9 74 -10 67z m-11 -485 c0 -2 -12 -14 -27 -28 l-28
-24 24 28 c23 25 31 32 31 24z"/>
<path d="M2544 2636 c-62 -20 -110 -61 -139 -119 -31 -62 -32 -87 -5 -87 14 0
20 7 20 23 0 32 45 98 87 127 28 19 52 26 108 28 134 7 205 -50 192 -153 -8
-56 -39 -80 -193 -148 -152 -67 -198 -101 -230 -171 -30 -64 -30 -77 -1 -104
23 -22 29 -22 243 -20 199 3 219 5 222 21 3 16 -12 17 -218 17 -249 0 -245 -2
-212 74 25 54 75 93 180 136 177 74 225 108 243 172 20 76 -14 154 -81 188
-53 27 -160 35 -216 16z"/>
<path d="M2890 2421 c-187 -281 -188 -265 29 -269 l151 -3 0 -64 c0 -58 2 -65
20 -65 18 0 20 7 20 65 l0 65 55 0 c42 0 55 3 55 15 0 12 -13 15 -55 15 l-55
0 0 229 0 229 -35 4 -35 4 -150 -225z m180 -26 l0 -215 -138 0 c-76 0 -141 3
-145 6 -6 6 268 424 278 424 3 0 5 -97 5 -215z"/>
<path d="M2260 2621 c-17 -32 -12 -50 21 -70 l30 -19 -36 -35 c-36 -35 -34
-58 5 -37 53 28 90 136 58 168 -19 19 -66 15 -78 -7z"/>
<path d="M640 2223 c0 -11 -123 -144 -256 -280 -117 -118 -119 -123 -41 -123
l42 0 19 -82 c65 -291 203 -491 407 -591 111 -54 185 -75 295 -84 65 -5 81 -3
81 8 1 8 4 39 7 69 7 57 11 162 20 440 3 91 13 206 21 255 9 50 21 113 25 140
5 28 12 60 15 73 5 19 2 22 -27 22 -57 0 -269 38 -362 65 -49 14 -123 41 -164
60 -82 38 -82 38 -82 28z"/>
<path d="M2704 1131 c4 -6 16 -16 28 -22 15 -8 18 -8 14 0 -4 6 -16 16 -28 22
-15 8 -18 8 -14 0z"/>
<path d="M1890 1107 c0 -2 12 -19 26 -38 27 -35 28 -33 5 14 -12 22 -31 37
-31 24z"/>
<path d="M2760 1095 c0 -7 61 -37 66 -33 2 3 -12 12 -31 21 -19 9 -35 15 -35
12z"/>
<path d="M1970 978 c0 -9 5 -20 10 -23 13 -8 13 5 0 25 -8 13 -10 13 -10 -2z"/>
<path d="M1531 941 l-64 -17 0 -69 c1 -79 -36 -239 -67 -295 -30 -53 -80 -161
-80 -172 0 -5 -8 -22 -18 -36 -11 -15 -25 -43 -33 -62 -19 -46 -90 -184 -99
-190 -3 -3 -21 -26 -39 -52 l-32 -48 54 0 c37 0 59 5 73 18 10 9 37 29 59 43
56 38 99 83 150 162 49 76 85 163 85 207 0 16 4 31 9 34 5 3 12 21 15 39 3 18
15 49 25 69 11 20 20 44 20 54 1 36 7 89 13 104 27 70 42 176 26 186 -3 2 -4
13 -1 24 7 24 -7 25 -96 1z"/>
<path d="M2030 798 c0 -30 -19 -39 -21 -10 0 10 -3 12 -6 5 -2 -7 2 -22 11
-34 13 -19 13 -26 -1 -63 -9 -22 -22 -50 -30 -62 -7 -11 -22 -47 -33 -80 -19
-53 -20 -66 -9 -121 14 -76 13 -78 -9 -78 -17 0 -21 -12 -63 -200 -7 -31 -23
-62 -41 -81 -17 -18 -28 -40 -26 -50 3 -17 15 -19 98 -22 l95 -3 -33 30 c-33
31 -62 86 -62 118 0 42 53 129 118 193 l68 67 55 -31 c30 -17 74 -46 99 -64
64 -47 216 -118 313 -146 61 -18 191 -75 299 -131 l66 -35 196 1 c110 0 194 4
191 9 -3 5 -22 14 -43 21 -20 6 -62 23 -92 36 -30 14 -75 31 -100 40 -25 8
-69 26 -98 40 -77 35 -214 83 -223 77 -10 -6 -127 34 -154 52 -11 8 -44 14
-75 14 -30 1 -73 7 -95 15 -22 8 -54 15 -70 15 -26 0 -151 52 -165 69 -11 13
-73 41 -90 41 -26 0 -40 26 -40 70 0 12 -10 25 -24 31 l-24 11 19 62 c20 65
25 181 9 206 -8 12 -10 9 -10 -12z m304 -491 c43 -20 130 -50 192 -68 118 -34
144 -49 52 -30 -89 19 -209 61 -296 103 -80 39 -128 74 -60 44 18 -8 69 -30
112 -49z m413 -133 c-3 -3 -12 -4 -19 -1 -8 3 -5 6 6 6 11 1 17 -2 13 -5z
m145 -40 c68 -25 211 -96 233 -116 6 -5 -35 12 -90 38 -55 25 -134 59 -175 75
-41 15 -67 28 -58 29 9 0 50 -12 90 -26z"/>
<path d="M1755 10 c-3 -5 -1 -10 4 -10 6 0 11 5 11 10 0 6 -2 10 -4 10 -3 0
-8 -4 -11 -10z"/>
</g>
</svg>
